<mxfile host="app.diagrams.net" modified="2023-10-05T08:41:07.304Z" agent="Mozilla/5.0 (Windows NT 10.0; Win64; x64; rv:109.0) Gecko/20100101 Firefox/118.0" version="22.0.2" etag="iObrevv4MVsFpAgiUw9x" type="github">
  <diagram name="Page-1" id="SOYQqsShK2HGZZ9Wt27S">
    <mxGraphModel>
      <root>
        <mxCell id="0" />
        <mxCell id="1" parent="0" />
      </root>
    </mxGraphModel>
  </diagram>
</mxfile>
